<svg width="156" height="42" viewBox="0 0 156 42" fill="none" xmlns="http://www.w3.org/2000/svg">
<path d="M68.4014 31.7948V10.716H75.8917C82.0751 10.716 86.3847 14.9927 86.3847 21.1347C86.3847 27.2766 82.0751 31.7948 75.8917 31.7948H68.4014ZM71.9684 28.5421H76.13C79.9931 28.5421 82.6997 25.5004 82.6997 21.1347C82.6997 17.0104 79.9956 13.9687 76.13 13.9687H71.9684V28.5421Z" fill="black"/>
<path d="M86.7129 23.874C86.7129 18.6037 90.132 15.351 94.5318 15.351C98.9317 15.351 101.962 18.5122 102.052 23.6911V24.5347H90.2223C90.4606 27.3351 92.1839 29.2333 94.8604 29.2333C96.6741 29.2333 98.0412 28.3287 98.5755 26.7328H101.995C101.192 30.1659 98.5454 32.2446 94.8303 32.2446C90.0141 32.2446 86.7154 28.7505 86.7154 23.874H86.7129ZM98.425 22.0368C97.9785 19.7472 96.5813 18.3623 94.5318 18.3623C92.4824 18.3623 90.9046 19.7472 90.3703 22.0368H98.425Z" fill="black"/>
<path d="M102.496 23.6936C102.496 18.4538 105.973 15.3536 110.551 15.3536C114.86 15.3536 117.775 18.0345 118.071 22.0088H114.622C114.296 19.8107 112.751 18.3953 110.521 18.3953C107.844 18.3953 106.061 20.4435 106.061 23.6962C106.061 27.1902 108.022 29.2079 110.639 29.2079C112.778 29.2079 114.266 27.823 114.622 25.5334H118.071C117.655 29.6577 114.83 32.2471 110.641 32.2471C105.499 32.2471 102.496 28.5142 102.496 23.6962V23.6936Z" fill="black"/>
<path d="M118.225 11.3767C118.225 10.0807 119.205 9.08713 120.485 9.08713C121.764 9.08713 122.745 10.0807 122.745 11.3767C122.745 12.6727 121.794 13.6942 120.485 13.6942C119.175 13.6942 118.225 12.6701 118.225 11.3767ZM118.731 31.7948V15.8364H122.238V31.7948H118.731Z" fill="black"/>
<path d="M123.011 23.7241C123.011 18.7867 126.013 15.3536 130.205 15.3536C132.435 15.3536 134.276 16.2862 135.378 17.7931V9.21164H138.884V31.7973H136.06L135.734 28.9665C134.843 30.9841 132.879 32.2496 130.323 32.2496C126.071 32.2496 123.011 28.7556 123.011 23.7266V23.7241ZM135.378 23.6936C135.378 20.5324 133.594 18.3343 131.038 18.3343C128.482 18.3343 126.608 20.5629 126.608 23.7546C126.608 26.9463 128.391 29.2358 130.978 29.2358C133.564 29.2358 135.378 26.9463 135.378 23.6962V23.6936Z" fill="black"/>
<path d="M140.473 31.7948V15.8364H143.297L143.714 18.9671C144.725 16.7995 146.568 15.656 149.182 15.656H149.777V19.1196H149.182C145.914 19.1196 143.98 20.8958 143.98 23.9071V31.7973H140.473V31.7948Z" fill="black"/>
<path d="M32.2261 31.4924L27.3671 24.2171H15.1935C12.705 24.2171 10.6782 22.1664 10.6782 19.643V15.2824C10.6782 12.7616 12.7025 10.7084 15.1935 10.7084H18.3441L13.5078 3.46866L3.22299 3.44325C3.16529 3.44325 3.11512 3.46358 3.07248 3.50678C3.02983 3.54998 3.00977 3.6008 3.00977 3.66179V31.2764C3.00977 31.3958 3.10509 31.4924 3.22299 31.4924H32.2261Z" fill="black"/>
<path d="M42.8171 38.755C50.4529 38.755 56.6639 32.4606 56.6639 24.7253C56.6639 16.9901 50.4529 10.6982 42.8171 10.6982L18.3594 10.7312L23.1982 17.9735H42.8171C46.492 17.9735 49.4846 21.0025 49.4846 24.7279C49.4846 28.4532 46.4945 31.4822 42.8171 31.4822H32.2187L37.0777 38.7575H42.8171V38.755Z" fill="black"/>
</svg>
